{
  "accessors": [
    {
      "bufferView": 2,
      "componentType": 5126,
      "count": 1936,
      "max": [
        24.391948699951172,
        24.391948699951172,
        24.898033142089844
      ],
      "min": [
        -24.391948699951172,
        -24.391948699951172,
        -24.898033142089844
      ],
      "type": "VEC3"
    },
    {
      "bufferView": 2,
      "byteOffset": 23232,
      "componentType": 5126,
      "count": 1936,
      "max": [
        1,
        1,
        1
      ],
      "min": [
        -1,
        -1,
        -1
      ],
      "type": "VEC3"
    },
    {
      "bufferView": 3,
      "componentType": 5126,
      "count": 1936,
      "max": [
        0.97203409671783447,
        1,
        0.95222896337509155,
        1
      ],
      "min": [
        -1,
        -1,
        -1,
        1
      ],
      "type": "VEC4"
    },
    {
      "bufferView": 1,
      "componentType": 5126,
      "count": 1936,
      "max": [
        0.99950003623962402,
        0.98749953508377075
      ],
      "min": [
        0.00050000002374872565,
        0.00050000002374872565
      ],
      "type": "VEC2"
    },
    {
      "bufferView": 0,
      "componentType": 5125,
      "count": 9120,
      "max": [
        1935
      ],
      "min": [
        0
      ],
      "type": "SCALAR"
    },
    {
      "bufferView": 2,
      "byteOffset": 46464,
      "componentType": 5126,
      "count": 802,
      "max": [
        24.863931655883789,
        24.863937377929688,
        25.379795074462891
      ],
      "min": [
        -24.863933563232422,
        -24.863931655883789,
        -25.379795074462891
      ],
      "type": "VEC3"
    },
    {
      "bufferView": 2,
      "byteOffset": 56088,
      "componentType": 5126,
      "count": 802,
      "max": [
        1,
        1,
        1
      ],
      "min": [
        -1,
        -1,
        -1
      ],
      "type": "VEC3"
    },
    {
      "bufferView": 3,
      "byteOffset": 30976,
      "componentType": 5126,
      "count": 802,
      "max": [
        0.99964648485183716,
        0.99999213218688965,
        0.48052322864532471,
        1
      ],
      "min": [
        -0.99964612722396851,
        -0.99975717067718506,
        -0.43366217613220215,
        1
      ],
      "type": "VEC4"
    },
    {
      "bufferView": 1,
      "byteOffset": 15488,
      "componentType": 5126,
      "count": 802,
      "max": [
        0.98558461666107178,
        0.99949997663497925
      ],
      "min": [
        0.00050000002374872565,
        0.00050000002374872565
      ],
      "type": "VEC2"
    },
    {
      "bufferView": 0,
      "byteOffset": 36480,
      "componentType": 5125,
      "count": 4560,
      "max": [
        801
      ],
      "min": [
        0
      ],
      "type": "SCALAR"
    },
    {
      "bufferView": 2,
      "byteOffset": 65712,
      "componentType": 5126,
      "count": 802,
      "max": [
        2.5235843658447266,
        2.5235919952392578,
        2.5759429931640625
      ],
      "min": [
        -2.5235843658447266,
        -2.5235786437988281,
        -2.5759429931640625
      ],
      "type": "VEC3"
    },
    {
      "bufferView": 2,
      "byteOffset": 75336,
      "componentType": 5126,
      "count": 802,
      "max": [
        1,
        1,
        1
      ],
      "min": [
        -1,
        -1,
        -1
      ],
      "type": "VEC3"
    },
    {
      "bufferView": 3,
      "byteOffset": 43808,
      "componentType": 5126,
      "count": 802,
      "max": [
        0.99964648485183716,
        0.99999207258224487,
        0.48052281141281128,
        -1
      ],
      "min": [
        -0.99964618682861328,
        -0.99975723028182983,
        -0.43366158008575439,
        -1
      ],
      "type": "VEC4"
    },
    {
      "bufferView": 1,
      "byteOffset": 21904,
      "componentType": 5126,
      "count": 802,
      "max": [
        0.98558461666107178,
        0.99949997663497925
      ],
      "min": [
        0.00050000002374872565,
        0.00050000002374872565
      ],
      "type": "VEC2"
    },
    {
      "bufferView": 0,
      "byteOffset": 54720,
      "componentType": 5125,
      "count": 4560,
      "max": [
        801
      ],
      "min": [
        0
      ],
      "type": "SCALAR"
    },
    {
      "bufferView": 2,
      "byteOffset": 84960,
      "componentType": 5126,
      "count": 732,
      "max": [
        17.948467254638672,
        17.968820571899414,
        1.0843381881713867
      ],
      "min": [
        -17.948467254638672,
        -17.887456893920898,
        -7.5930228233337402
      ],
      "type": "VEC3"
    },
    {
      "bufferView": 2,
      "byteOffset": 93744,
      "componentType": 5126,
      "count": 732,
      "max": [
        0.99886739253997803,
        1,
        0.9926571249961853
      ],
      "min": [
        -0.99886739253997803,
        -1,
        -0.9926571249961853
      ],
      "type": "VEC3"
    },
    {
      "bufferView": 3,
      "byteOffset": 56640,
      "componentType": 5126,
      "count": 732,
      "max": [
        0.99109137058258057,
        0.99265152215957642,
        1,
        1
      ],
      "min": [
        -0.99083900451660156,
        -0.99265158176422119,
        -0.95809489488601685,
        1
      ],
      "type": "VEC4"
    },
    {
      "bufferView": 1,
      "byteOffset": 28320,
      "componentType": 5126,
      "count": 732,
      "max": [
        1,
        1
      ],
      "min": [
        0,
        0
      ],
      "type": "VEC2"
    },
    {
      "bufferView": 0,
      "byteOffset": 72960,
      "componentType": 5125,
      "count": 3894,
      "max": [
        731
      ],
      "min": [
        0
      ],
      "type": "SCALAR"
    },
    {
      "bufferView": 2,
      "byteOffset": 102528,
      "componentType": 5126,
      "count": 534,
      "max": [
        17.962732315063477,
        15.719632148742676,
        -3.5177128314971924
      ],
      "min": [
        -17.921142578125,
        -15.719633102416992,
        -9.1590900421142578
      ],
      "type": "VEC3"
    },
    {
      "bufferView": 2,
      "byteOffset": 108936,
      "componentType": 5126,
      "count": 534,
      "max": [
        1,
        1,
        1
      ],
      "min": [
        -1,
        -1,
        -1
      ],
      "type": "VEC3"
    },
    {
      "bufferView": 3,
      "byteOffset": 68352,
      "componentType": 5126,
      "count": 534,
      "max": [
        1,
        1,
        0.11755908280611038,
        1
      ],
      "min": [
        -1,
        -1,
        -0.11755967885255814,
        1
      ],
      "type": "VEC4"
    },
    {
      "bufferView": 1,
      "byteOffset": 34176,
      "componentType": 5126,
      "count": 534,
      "max": [
        0.99999982118606567,
        1
      ],
      "min": [
        0,
        5.9604644775390625e-08
      ],
      "type": "VEC2"
    },
    {
      "bufferView": 0,
      "byteOffset": 88536,
      "componentType": 5125,
      "count": 2160,
      "max": [
        533
      ],
      "min": [
        0
      ],
      "type": "SCALAR"
    }
  ],
  "asset": {
    "extras": {
      "author": "sucholudek (https://sketchfab.com/sucholudek)",
      "license": "CC-BY-4.0 (http://creativecommons.org/licenses/by/4.0/)",
      "source": "https://sketchfab.com/models/c170c1a7829e42a193ab3ba629d0f155",
      "title": "Witch Orb"
    },
    "generator": "Sketchfab-3.32.3",
    "version": "2.0"
  },
  "bufferViews": [
    {
      "buffer": 0,
      "byteLength": 97176,
      "byteOffset": 0,
      "name": "floatBufferViews",
      "target": 34963
    },
    {
      "buffer": 0,
      "byteLength": 38448,
      "byteOffset": 97176,
      "byteStride": 8,
      "name": "floatBufferViews",
      "target": 34962
    },
    {
      "buffer": 0,
      "byteLength": 115344,
      "byteOffset": 135624,
      "byteStride": 12,
      "name": "floatBufferViews",
      "target": 34962
    },
    {
      "buffer": 0,
      "byteLength": 76896,
      "byteOffset": 250968,
      "byteStride": 16,
      "name": "floatBufferViews",
      "target": 34962
    }
  ],
  "buffers": [
    {
      "byteLength": 327864,
      "uri": "scene.bin"
    }
  ],
  "images": [
    {
      "uri": "textures/Material_13_metallicRoughness.png"
    },
    {
      "uri": "textures/Material_16_metallicRoughness.png"
    }
  ],
  "materials": [
    {
      "alphaMode": "BLEND",
      "doubleSided": true,
      "emissiveFactor": [
        0,
        0,
        0
      ],
      "name": "Material_13",
      "pbrMetallicRoughness": {
        "baseColorFactor": [
          1,
          1,
          1,
          0.033228556300000003
        ],
        "metallicFactor": 1,
        "metallicRoughnessTexture": {
          "index": 0,
          "texCoord": 0
        },
        "roughnessFactor": 1
      }
    },
    {
      "alphaMode": "BLEND",
      "doubleSided": false,
      "emissiveFactor": [
        1,
        0.55598989300000001,
        1
      ],
      "name": "Material_14",
      "pbrMetallicRoughness": {
        "baseColorFactor": [
          0,
          0,
          0,
          0.1904612607
        ],
        "metallicFactor": 0,
        "roughnessFactor": 0.41058704689999997
      }
    },
    {
      "doubleSided": true,
      "emissiveFactor": [
        1,
        0.78151723900000003,
        1
      ],
      "name": "Material_15",
      "pbrMetallicRoughness": {
        "baseColorFactor": [
          1,
          0,
          0,
          1
        ],
        "metallicFactor": 0,
        "roughnessFactor": 0
      }
    },
    {
      "doubleSided": true,
      "name": "Material_16",
      "pbrMetallicRoughness": {
        "baseColorFactor": [
          0.22339987259999999,
          0.25890569460000001,
          0.38638409709999999,
          1
        ],
        "metallicFactor": 1,
        "metallicRoughnessTexture": {
          "index": 1,
          "texCoord": 0
        },
        "roughnessFactor": 1
      }
    }
  ],
  "meshes": [
    {
      "name": "orb_Material #13_0",
      "primitives": [
        {
          "attributes": {
            "NORMAL": 1,
            "POSITION": 0,
            "TANGENT": 2,
            "TEXCOORD_0": 3
          },
          "indices": 4,
          "material": 0,
          "mode": 4
        }
      ]
    },
    {
      "name": "orb-outline_Material #14_0",
      "primitives": [
        {
          "attributes": {
            "NORMAL": 6,
            "POSITION": 5,
            "TANGENT": 7,
            "TEXCOORD_0": 8
          },
          "indices": 9,
          "material": 1,
          "mode": 4
        }
      ]
    },
    {
      "name": "inside_Material #15_0",
      "primitives": [
        {
          "attributes": {
            "NORMAL": 11,
            "POSITION": 10,
            "TANGENT": 12,
            "TEXCOORD_0": 13
          },
          "indices": 14,
          "material": 2,
          "mode": 4
        }
      ]
    },
    {
      "name": "Torus001_Material #16_0",
      "primitives": [
        {
          "attributes": {
            "NORMAL": 16,
            "POSITION": 15,
            "TANGENT": 17,
            "TEXCOORD_0": 18
          },
          "indices": 19,
          "material": 3,
          "mode": 4
        }
      ]
    },
    {
      "name": "Torus001_Material #15_0",
      "primitives": [
        {
          "attributes": {
            "NORMAL": 21,
            "POSITION": 20,
            "TANGENT": 22,
            "TEXCOORD_0": 23
          },
          "indices": 24,
          "material": 2,
          "mode": 4
        }
      ]
    }
  ],
  "nodes": [
    {
      "children": [
        1
      ],
      "name": "RootNode (gltf orientation matrix)",
      "rotation": [
        -0.70710678118654746,
        -0,
        -0,
        0.70710678118654757
      ]
    },
    {
      "children": [
        2
      ],
      "name": "RootNode (model correction matrix)"
    },
    {
      "children": [
        3
      ],
      "matrix": [
        1,
        0,
        0,
        0,
        0,
        0,
        1,
        0,
        0,
        -1,
        0,
        0,
        0,
        0,
        0,
        1
      ],
      "name": "f934866326344f26b7c5046c2940eb59.fbx"
    },
    {
      "children": [
        4,
        6,
        8,
        10
      ],
      "name": "RootNode"
    },
    {
      "children": [
        5
      ],
      "matrix": [
        1,
        0,
        0,
        0,
        0,
        2.2204460492503131e-16,
        -1,
        0,
        0,
        1,
        2.2204460492503131e-16,
        0,
        0,
        0,
        0,
        1
      ],
      "name": "orb"
    },
    {
      "mesh": 0,
      "name": "orb_Material #13_0"
    },
    {
      "children": [
        7
      ],
      "matrix": [
        1,
        0,
        0,
        0,
        0,
        2.2204460492503131e-16,
        -1,
        0,
        0,
        1,
        2.2204460492503131e-16,
        0,
        0,
        0,
        0,
        1
      ],
      "name": "orb-outline"
    },
    {
      "mesh": 1,
      "name": "orb-outline_Material #14_0"
    },
    {
      "children": [
        9
      ],
      "matrix": [
        2.7883002758026123,
        0,
        0,
        0,
        0,
        6.1912703315294688e-16,
        -2.7883002758026123,
        0,
        0,
        6.7145247459411621,
        1.4909239944718516e-15,
        0,
        0,
        0,
        0,
        1
      ],
      "name": "inside"
    },
    {
      "mesh": 2,
      "name": "inside_Material #15_0"
    },
    {
      "children": [
        11,
        12
      ],
      "matrix": [
        1,
        0,
        0,
        0,
        0,
        2.2204460492503131e-16,
        -1,
        0,
        0,
        1,
        2.2204460492503131e-16,
        0,
        0,
        -29.023155212402344,
        0,
        1
      ],
      "name": "Torus001"
    },
    {
      "mesh": 3,
      "name": "Torus001_Material #16_0"
    },
    {
      "mesh": 4,
      "name": "Torus001_Material #15_0"
    }
  ],
  "samplers": [
    {
      "magFilter": 9729,
      "minFilter": 9987,
      "wrapS": 10497,
      "wrapT": 10497
    }
  ],
  "scene": 0,
  "scenes": [
    {
      "name": "OSG_Scene",
      "nodes": [
        0
      ]
    }
  ],
  "textures": [
    {
      "sampler": 0,
      "source": 0
    },
    {
      "sampler": 0,
      "source": 1
    }
  ]
}

